<svg class="MuiSvgIcon-root jss167" focusable="false" viewBox="0 0 40 40" aria-hidden="true" style="width: 40px; height: 40px;"><svg width="40" height="40" viewBox="0 0 40 40" fill="none" xmlns="http://www.w3.org/2000/svg"><path stroke="currentColor" d="M9.33325 34.6666V33.3329C9.33325 28.9146 12.915 25.3333 17.3333 25.3333H22.6666C27.0849 25.3333 30.6666 28.9146 30.6666 33.3329V34.6666M19.9999 9.33325C17.0544 9.33325 14.6666 11.7211 14.6666 14.6666C14.6666 17.6121 17.0544 19.9999 19.9999 19.9999C22.9454 19.9999 25.3333 17.6121 25.3333 14.6666C25.3333 11.7211 22.9454 9.33325 19.9999 9.33325ZM19.9999 38.6666C9.6906 38.6666 1.33325 30.3092 1.33325 19.9999C1.33325 9.6906 9.6906 1.33325 19.9999 1.33325C30.3092 1.33325 38.6666 9.6906 38.6666 19.9999C38.6666 30.3092 30.3092 38.6666 19.9999 38.6666Z" stroke-width="1.5" stroke-linecap="round" stroke-linejoin="round"></path></svg></svg>