<svg class="jss7" width="184" height="41" viewBox="0 0 184 41" fill="none" xmlns="http://www.w3.org/2000/svg"><path fill-rule="evenodd" clip-rule="evenodd" d="M10.5497 0H38.4507C39.1165 0 39.7315 0.356142 40.0635 0.933924L48.1922 15.0798C48.6137 15.8134 48.4885 16.7393 47.8872 17.3342L25.5127 39.4708C24.7879 40.1879 23.622 40.1879 22.8972 39.4708L0.552922 17.3641C-0.0623286 16.7554 -0.177538 15.8025 0.274888 15.0643L8.96384 0.888538C9.30224 0.336459 9.90273 0 10.5497 0ZM34.8482 6.31565V10.2848H26.9003V13.0367C32.4824 13.3308 36.6704 14.5386 36.7015 15.9863L36.7013 19.0044C36.6702 20.4521 32.4824 21.6599 26.9003 21.954V28.7075H21.6228V21.954C16.0407 21.6599 11.8527 20.4521 11.8217 19.0044L11.8218 15.9863C11.8529 14.5386 16.0407 13.3308 21.6228 13.0367V10.2848H13.6749V6.31565H34.8482ZM24.2616 19.8806C30.2186 19.8806 35.1977 18.8593 36.4162 17.4954C35.3829 16.3388 31.6453 15.4285 26.9003 15.1785V18.0598C26.0499 18.1046 25.167 18.1282 24.2616 18.1282C23.3561 18.1282 22.4733 18.1046 21.6228 18.0598V15.1785C16.8778 15.4285 13.1402 16.3388 12.1069 17.4954C13.3254 18.8593 18.3045 19.8806 24.2616 19.8806Z" fill="#009393"></path><path d="M59.0845 7.67574L65.5342 6.94938V13.2143H71.1329V18.662H65.4894V27.106C65.4894 29.1035 66.3255 30.1022 67.9976 30.1022C69.0725 30.1022 69.9683 29.9206 70.685 29.5575L72.163 35.0052C70.6999 35.5802 69.1472 35.9131 67.5049 36.0039C64.9071 36.125 62.8468 35.5046 61.324 34.1426C59.831 32.7504 59.0845 30.4049 59.0845 27.106V18.662H55.1431V13.2143H59.0845V7.67574Z" fill="#009393"></path><path d="M95.2718 26.425H79.0133C79.1925 27.5751 79.8046 28.5284 80.8497 29.2851C81.8948 30.0114 83.2832 30.3746 85.0151 30.3746C87.4934 30.3746 89.4044 29.7844 90.7481 28.6041L94.3761 32.6899C92.1664 34.8993 89.0013 36.0039 84.8807 36.0039C80.9393 36.0039 77.8787 34.9295 75.6989 32.7807C73.549 30.6319 72.4741 27.7264 72.4741 24.0643C72.4741 20.6141 73.5341 17.8297 75.6541 15.7111C77.7741 13.5623 80.6257 12.4879 84.2089 12.4879C88.1205 12.4879 91.1064 13.6985 93.1667 16.1197C95.2569 18.5409 95.9586 21.976 95.2718 26.425ZM79.0133 21.6582H89.494C89.4343 20.5082 88.8968 19.6305 87.8816 19.0252C86.8664 18.3896 85.6421 18.0718 84.2089 18.0718C82.9249 18.0718 81.8201 18.3896 80.8945 19.0252C79.9688 19.6607 79.3418 20.5384 79.0133 21.6582Z" fill="#009393"></path><path d="M100.649 7.67574L107.099 6.94938V13.2143H112.697V18.662H107.054V27.106C107.054 29.1035 107.89 30.1022 109.562 30.1022C110.637 30.1022 111.533 29.9206 112.249 29.5575L113.727 35.0052C112.264 35.5802 110.712 35.9131 109.069 36.0039C106.472 36.125 104.411 35.5046 102.888 34.1426C101.395 32.7504 100.649 30.4049 100.649 27.106V18.662H96.7075V13.2143H100.649V7.67574Z" fill="#009393"></path><path d="M116.146 3.72614H122.64V15.8473C124.223 13.759 126.462 12.7149 129.359 12.7149C135.241 12.7149 138.182 16.3013 138.182 23.4742V35.5046H131.733V23.5196C131.733 21.976 131.344 20.7806 130.568 19.9331C129.822 19.0857 128.806 18.662 127.522 18.662C126.119 18.662 124.939 19.1462 123.984 20.1147C123.058 21.0832 122.595 22.43 122.595 24.1551V35.5046H116.146V3.72614Z" fill="#009393"></path><path d="M163.477 26.425H147.219C147.398 27.5751 148.01 28.5284 149.055 29.2851C150.1 30.0114 151.489 30.3746 153.221 30.3746C155.699 30.3746 157.61 29.7844 158.954 28.6041L162.582 32.6899C160.372 34.8993 157.207 36.0039 153.086 36.0039C149.145 36.0039 146.084 34.9295 143.904 32.7807C141.754 30.6319 140.68 27.7264 140.68 24.0643C140.68 20.6141 141.74 17.8297 143.86 15.7111C145.98 13.5623 148.831 12.4879 152.414 12.4879C156.326 12.4879 159.312 13.6985 161.372 16.1197C163.462 18.5409 164.164 21.976 163.477 26.425ZM147.219 21.6582H157.699C157.64 20.5082 157.102 19.6305 156.087 19.0252C155.072 18.3896 153.848 18.0718 152.414 18.0718C151.13 18.0718 150.026 18.3896 149.1 19.0252C148.174 19.6607 147.547 20.5384 147.219 21.6582Z" fill="#009393"></path><path d="M166.152 13.1235H172.154L172.647 15.5749C174.05 13.5774 176.021 12.5787 178.559 12.5787C180.649 12.5787 182.455 13.2597 183.978 14.6216L181.291 19.7969C180.246 19.0403 179.066 18.662 177.753 18.662C176.289 18.662 175.065 19.1311 174.08 20.0693C173.095 20.9773 172.602 22.2333 172.602 23.8373V35.5046H166.152V13.1235Z" fill="#009393"></path></svg>